<svg xmlns="http://www.w3.org/2000/svg" viewBox="0 0 64 64">
  <defs>
    <radialGradient id="bg" cx="50%" cy="40%" r="70%">
      <stop offset="0%" stop-color="#8bd5ff" stop-opacity="0.85" />
      <stop offset="60%" stop-color="#3f6bdc" stop-opacity="0.75" />
      <stop offset="100%" stop-color="#0b1223" stop-opacity="0.95" />
    </radialGradient>
  </defs>
  <rect width="64" height="64" rx="14" fill="url(#bg)" />
  <path
    fill="#f5fbff"
    d="M32 12c-1.2 0-2.4.56-3.14 1.52l-14 18c-1.5 1.93-.1 4.72 2.34 4.72H24l-4.72 8.18C17.54 47.66 18.94 50 21.26 50h21.48c2.32 0 3.72-2.34 1.98-5.58L40 36.24h6.8c2.44 0 3.84-2.79 2.34-4.72l-14-18C34.4 12.56 33.2 12 32 12Zm0 6.32L41.34 30h-6.26c-1.52 0-2.52 1.66-1.78 3l4.96 8.92H25.74l4.96-8.92c.74-1.34-.26-3-1.78-3h-6.26L32 18.32Z"
  />
</svg>
